<svg width="28" height="28" viewBox="0 0 28 28" fill="none" xmlns="http://www.w3.org/2000/svg">
<rect width="28" height="28" fill="#EB47B4"/>
<path d="M8.1875 18.5664C6.54688 18.5664 5.73438 17.7539 5.73438 16.1445V8.23828C5.73438 6.62891 6.54688 5.81641 8.1875 5.81641H16.0312C17.6562 5.81641 18.4766 6.62891 18.4766 8.23828V9.43359H19.8203C21.4453 9.43359 22.2656 10.2461 22.2656 11.8555V19.7617C22.2656 21.3711 21.4453 22.1836 19.8203 22.1836H11.9766C10.3359 22.1836 9.52344 21.3711 9.52344 19.7617V18.5664H8.1875ZM8.20312 17.3086H9.52344V11.8555C9.52344 10.2383 10.3359 9.43359 11.9766 9.43359H17.2188V8.30859C17.2188 7.49609 16.7812 7.07422 16.0078 7.07422H8.20312C7.42188 7.07422 6.99219 7.49609 6.99219 8.30859V16.0742C6.99219 16.8867 7.42188 17.3086 8.20312 17.3086ZM16.3047 19.0508C16.4453 19.0508 16.5547 18.9414 16.5938 18.793C17.0391 16.4258 17.2578 15.9805 19.7188 15.6523C19.875 15.6367 19.9844 15.5117 19.9844 15.3555C19.9844 15.207 19.875 15.0898 19.7188 15.0664C17.2656 14.7305 16.9375 14.2617 16.5938 11.9414C16.5625 11.7852 16.4453 11.668 16.3047 11.668C16.1484 11.668 16.0391 11.7773 15.9922 11.9336C15.5547 14.3086 15.3359 14.7305 12.8828 15.0664C12.7188 15.0898 12.6094 15.207 12.6094 15.3555C12.6094 15.5117 12.7188 15.6289 12.8828 15.6523C15.3438 15.9023 15.6562 16.4258 15.9922 18.7852C16.0234 18.9414 16.1328 19.0508 16.3047 19.0508ZM13.125 20.3633C13.2422 20.3633 13.3281 20.293 13.3594 20.1836C13.5703 19.0039 13.4922 18.957 14.7734 18.7617C14.8828 18.7383 14.9688 18.6523 14.9688 18.543C14.9688 18.4258 14.8828 18.3398 14.7734 18.3242C13.5 18.1055 13.5703 18.0508 13.3594 16.9102C13.3281 16.793 13.25 16.707 13.125 16.707C13.0156 16.707 12.9375 16.7852 12.8984 16.9102C12.6719 18.0508 12.7734 18.1055 11.4922 18.3242C11.375 18.3398 11.2969 18.4258 11.2969 18.543C11.2969 18.668 11.375 18.7383 11.5078 18.7617C12.7734 18.957 12.6719 19.0039 12.8984 20.1602C12.9375 20.2852 13.0078 20.3633 13.125 20.3633Z" fill="white"/>
</svg>
