<svg width="64" height="64" viewBox="0 0 64 64" fill="none" xmlns="http://www.w3.org/2000/svg">
<rect width="64" height="64" fill="#0098EA"/>
<path d="M42.9261 17.8601H21.0728C17.0547 17.8601 14.508 22.1944 16.5295 25.6983L30.0165 49.0752C30.8967 50.6016 33.1023 50.6016 33.9824 49.0752L47.4722 25.6983C49.4909 22.2 46.9442 17.8601 42.9289 17.8601H42.9261ZM30.0056 42.0648L27.0683 36.3801L19.981 23.7043C19.5135 22.893 20.0909 21.8534 21.07 21.8534H30.0028V42.0675L30.0056 42.0648ZM44.0124 23.7016L36.9279 36.3829L33.9906 42.0648V21.8506H42.9234C43.9025 21.8506 44.48 22.8903 44.0124 23.7016Z" fill="white"/>
</svg>
